<?xml version="1.0" standalone="no"?>
<!DOCTYPE svg PUBLIC "-//W3C//DTD SVG 20010904//EN"
 "http://www.w3.org/TR/2001/REC-SVG-20010904/DTD/svg10.dtd">
<svg version="1.0" xmlns="http://www.w3.org/2000/svg"
 width="1788.000000pt" height="1383.000000pt" viewBox="0 0 1788.000000 1383.000000"
 preserveAspectRatio="xMidYMid meet">

<g transform="translate(0.000000,1383.000000) scale(0.100000,-0.100000)"
fill="#000000" stroke="none">
<path d="M0 6915 l0 -6915 8940 0 8940 0 0 6915 0 6915 -8940 0 -8940 0 0
-6915z m7505 1386 c44 -6 111 -20 149 -31 59 -19 79 -31 131 -83 47 -47 66
-76 80 -117 57 -172 -23 -396 -210 -586 -126 -127 -257 -212 -365 -235 -71
-15 -73 -25 -76 -366 -1 -182 -6 -295 -14 -318 -15 -44 -53 -75 -95 -75 -32 0
-33 1 -39 53 -15 127 -35 438 -41 622 -12 397 -37 695 -70 830 -37 152 -3 227
125 276 95 36 266 48 425 30z m1668 -342 c17 -30 18 -49 11 -174 -13 -242 -10
-299 41 -665 42 -303 47 -359 43 -495 -3 -135 -15 -177 -54 -192 -40 -15 -116
105 -158 250 -36 124 -48 197 -55 342 l-6 130 -367 3 -368 2 0 -22 c1 -36 16
-138 49 -333 32 -189 39 -313 19 -333 -18 -18 -69 -14 -105 8 -105 64 -158
267 -193 740 -11 151 -27 343 -36 425 -11 104 -14 168 -8 210 8 54 12 61 51
88 55 39 84 32 108 -25 14 -34 20 -89 26 -263 4 -121 12 -232 18 -247 l11 -28
373 0 c356 0 375 1 391 19 32 35 36 88 20 231 -18 150 -13 222 16 281 22 43
54 68 103 79 44 11 50 9 70 -31z m-2867 -14 c88 -26 180 -126 257 -280 127
-255 249 -841 191 -923 -24 -34 -76 -30 -120 11 -33 30 -36 39 -60 167 -62
343 -110 507 -195 670 -21 42 -51 91 -67 109 l-27 33 -28 -22 c-61 -49 -100
-134 -152 -342 -58 -229 -115 -316 -218 -338 -126 -26 -217 49 -403 333 -127
194 -182 267 -200 267 -32 0 -58 -197 -51 -398 4 -123 13 -198 41 -347 20
-104 39 -222 43 -261 5 -64 3 -74 -18 -103 -32 -43 -87 -77 -101 -63 -12 12
-59 324 -83 551 -10 94 -15 243 -15 435 0 311 7 365 52 429 42 59 170 23 272
-77 55 -53 115 -133 251 -333 44 -64 100 -139 126 -166 l45 -50 27 18 c39 25
83 125 108 245 38 181 69 293 93 335 61 103 127 132 232 100z m4528 -42 c46
-91 120 -574 166 -1083 35 -401 34 -367 11 -379 -76 -41 -132 18 -171 181 -20
85 -26 135 -61 491 -11 114 -31 270 -45 345 -14 75 -31 195 -37 265 -10 122
-9 129 10 155 42 56 104 68 127 25z m-769 -282 c185 -82 237 -330 114 -546
-94 -166 -268 -275 -441 -275 -67 0 -69 -1 -63 -22 20 -69 99 -120 212 -137
104 -15 154 -14 263 10 167 36 208 40 250 29 47 -13 75 -48 65 -82 -28 -92
-175 -138 -439 -138 -201 0 -306 38 -422 154 -57 57 -77 86 -102 147 -50 122
-64 261 -41 411 46 298 238 486 484 475 44 -3 88 -12 120 -26z m2738 12 c76
-21 155 -90 187 -164 123 -288 -151 -669 -482 -669 -67 0 -69 -1 -62 -22 24
-79 106 -124 252 -141 92 -10 110 -9 214 12 192 40 223 43 268 31 81 -22 80
-103 -2 -153 -68 -43 -143 -57 -318 -64 -182 -6 -245 3 -348 52 -187 89 -285
265 -286 515 -1 200 52 362 154 473 64 70 123 106 210 129 83 22 139 22 213 1z
m-1028 -49 c115 -31 196 -88 237 -169 27 -51 35 -164 18 -236 -25 -106 -110
-246 -216 -354 -27 -28 -96 -91 -154 -140 -58 -49 -108 -94 -112 -100 -13 -17
-9 -101 7 -146 9 -23 50 -97 92 -163 103 -163 137 -237 141 -311 1 -33 -1 -66
-6 -74 -5 -7 -31 -16 -56 -18 -45 -5 -49 -4 -90 39 -107 112 -230 451 -376
1037 -77 308 -77 312 -40 441 32 109 98 170 223 205 65 19 245 13 332 -11z
m2456 -130 c30 -9 69 -27 87 -41 61 -46 100 -160 72 -213 -5 -10 -24 -23 -41
-29 -58 -20 -82 -14 -129 34 -48 49 -76 56 -133 31 -75 -32 -113 -110 -129
-263 -10 -99 -9 -117 12 -218 41 -199 44 -220 29 -251 -8 -16 -27 -35 -42 -42
-96 -46 -223 85 -367 379 -88 180 -152 368 -158 466 -4 66 -3 73 21 97 17 17
31 23 47 19 42 -11 108 -122 186 -313 24 -57 47 -106 51 -107 5 -2 19 26 31
62 82 227 185 357 310 391 64 17 89 17 153 -2z"/>
<path d="M7298 8117 c-60 -17 -97 -42 -108 -73 -6 -14 -10 -152 -10 -306 l0
-281 53 6 c64 8 191 70 269 132 162 128 248 328 190 442 -34 65 -90 87 -232
90 -72 2 -133 -2 -162 -10z"/>
<path d="M9866 7460 c-111 -35 -196 -164 -196 -299 0 -115 36 -150 141 -138
144 17 259 132 259 258 0 115 -44 179 -127 185 -26 2 -61 -1 -77 -6z"/>
<path d="M12631 7458 c-51 -18 -135 -100 -162 -160 -31 -71 -35 -214 -5 -247
64 -71 267 -9 339 103 26 41 32 63 35 117 5 81 -8 126 -48 164 -33 32 -102 42
-159 23z"/>
<path d="M11529 7427 c-109 -31 -159 -107 -159 -245 0 -46 7 -118 16 -160 31
-149 74 -188 179 -157 142 41 309 287 292 432 -9 82 -78 127 -207 137 -48 4
-92 1 -121 -7z"/>
</g>
</svg>
